<?xml version="1.0" standalone="no"?>
<!DOCTYPE svg PUBLIC "-//W3C//DTD SVG 20010904//EN"
 "http://www.w3.org/TR/2001/REC-SVG-20010904/DTD/svg10.dtd">
<svg version="1.0" xmlns="http://www.w3.org/2000/svg"
 width="512.000000pt" height="512.000000pt" viewBox="0 0 512.000000 512.000000"
 preserveAspectRatio="xMidYMid meet">

<g transform="translate(0.000000,512.000000) scale(0.100000,-0.100000)"
fill="#000000" stroke="none">
<path d="M2470 5097 c-131 -37 -238 -128 -296 -251 -79 -167 -47 -377 78 -504
153 -157 350 -192 544 -97 114 56 218 185 239 296 7 35 6 36 -30 42 -104 17
-169 121 -134 214 12 33 68 93 86 93 55 0 -65 123 -171 176 -69 34 -85 37
-174 40 -59 3 -114 -1 -142 -9z m290 -467 c29 -29 26 -74 -6 -99 -35 -27 -59
-26 -89 4 -46 45 -19 115 45 115 17 0 39 -9 50 -20z"/>
<path d="M890 4323 c-141 -14 -302 -76 -397 -151 -62 -50 -135 -150 -168 -229
-214 -528 220 -1468 1099 -2380 248 -257 512 -488 828 -726 163 -122 185 -142
170 -153 -39 -27 -291 -168 -380 -213 -403 -202 -746 -302 -1037 -302 -242 0
-399 66 -490 205 -172 261 -72 747 269 1318 48 80 76 138 76 156 0 54 -68 90
-120 62 -22 -12 -117 -167 -206 -335 -112 -212 -193 -426 -237 -625 -28 -129
-30 -374 -3 -470 68 -245 238 -401 498 -455 103 -22 339 -20 480 4 331 57 752
229 1163 476 l154 93 158 -95 c197 -119 516 -276 693 -342 297 -110 496 -151
729 -151 265 0 414 51 552 189 86 85 126 156 161 278 31 110 30 325 -2 468
-57 259 -168 526 -332 803 -27 45 -58 87 -68 92 -29 15 -65 12 -91 -9 -38 -30
-31 -82 21 -166 23 -38 73 -131 111 -205 265 -528 297 -941 90 -1148 -101
-100 -229 -143 -436 -143 -305 0 -660 107 -1083 326 -154 79 -352 195 -352
204 1 3 45 36 98 73 395 273 892 733 1235 1144 423 507 715 1038 808 1470 28
129 31 357 6 454 -48 182 -158 325 -310 400 -131 64 -215 82 -397 82 -251 1
-478 -49 -795 -173 -201 -79 -598 -285 -752 -391 l-42 -28 -68 43 c-585 373
-1232 591 -1633 550z m231 -163 c269 -28 573 -127 919 -300 119 -60 331 -179
382 -214 17 -12 7 -22 -104 -102 -437 -315 -887 -736 -1231 -1152 l-76 -92
-40 54 c-244 331 -451 756 -517 1066 -28 128 -25 334 5 420 74 214 237 314
532 329 15 0 73 -4 130 -9z m3264 -20 c187 -48 295 -153 342 -333 23 -89 21
-265 -6 -393 -43 -205 -162 -495 -307 -741 -58 -100 -230 -359 -242 -367 -4
-2 -38 34 -76 80 -309 383 -716 768 -1161 1101 -99 74 -184 138 -188 143 -22
20 487 287 728 381 201 79 437 138 605 153 80 7 230 -5 305 -24z m-2255 -1976
c0 -817 -3 -1024 -12 -1018 -60 35 -396 343 -579 532 -132 135 -339 370 -417
473 -29 39 510 619 848 912 80 70 148 127 153 127 4 0 7 -462 7 -1026z m1072
904 c270 -233 556 -525 776 -793 l90 -109 -40 -51 c-234 -296 -703 -766 -960
-964 -17 -13 -18 37 -18 1013 0 564 2 1026 5 1026 3 0 69 -55 147 -122z"/>
</g>
</svg>
