<?xml version="1.0" encoding="UTF-8"?>
<svg width="522px" height="645px" viewBox="0 0 522 645" version="1.1" xmlns="http://www.w3.org/2000/svg" xmlns:xlink="http://www.w3.org/1999/xlink">
    <!-- Generator: Sketch 55.2 (78181) - https://sketchapp.com -->
    <title>Group</title>
    <desc>Created with Sketch.</desc>
    <defs>
        <linearGradient x1="50%" y1="21.6869349%" x2="50%" y2="122.169502%" id="linearGradient-1">
            <stop stop-color="#E9E4F9" stop-opacity="0.0217108243" offset="0%"/>
            <stop stop-color="#B79BEF" offset="100%"/>
        </linearGradient>
        <polygon id="path-2" points="128.024254 268.006936 212.821664 267.172777 212.365922 201 210.130702 201.030917 211.150484 265.492626 128 266.381344"/>
        <filter x="-5.9%" y="-4.5%" width="111.8%" height="117.9%" filterUnits="objectBoundingBox" id="filter-3">
            <feOffset dx="0" dy="4" in="SourceAlpha" result="shadowOffsetOuter1"/>
            <feGaussianBlur stdDeviation="1" in="shadowOffsetOuter1" result="shadowBlurOuter1"/>
            <feColorMatrix values="0 0 0 0 0.392156863   0 0 0 0 0.556862745   0 0 0 0 0.8  0 0 0 0.4 0" type="matrix" in="shadowBlurOuter1"/>
        </filter>
        <linearGradient x1="57.9917731%" y1="57.0637362%" x2="6.32480055%" y2="29.1736222%" id="linearGradient-4">
            <stop stop-color="#DACAFF" offset="0%"/>
            <stop stop-color="#F1EBFD" offset="63.9801592%"/>
            <stop stop-color="#F6F3FD" offset="100%"/>
        </linearGradient>
        <linearGradient x1="50%" y1="90.0037906%" x2="50%" y2="1.88344986%" id="linearGradient-5">
            <stop stop-color="#C8B4F2" offset="0%"/>
            <stop stop-color="#F6F3FD" offset="100%"/>
        </linearGradient>
        <path d="M50.5510488,40.5510488 L268.788461,40.5510488 C274.311308,40.5510488 278.788461,45.0282013 278.788461,50.5510488 L278.788461,267.52124 C278.788461,273.044088 274.311308,277.52124 268.788461,277.52124 L50.5510488,277.52124 C45.0282013,277.52124 40.5510488,273.044088 40.5510488,267.52124 L40.5510488,50.5510488 C40.5510488,45.0282013 45.0282013,40.5510488 50.5510488,40.5510488 Z" id="path-6"/>
        <filter x="-12.6%" y="-12.7%" width="125.2%" height="125.3%" filterUnits="objectBoundingBox" id="filter-7">
            <feOffset dx="0" dy="0" in="SourceAlpha" result="shadowOffsetOuter1"/>
            <feGaussianBlur stdDeviation="10" in="shadowOffsetOuter1" result="shadowBlurOuter1"/>
            <feColorMatrix values="0 0 0 0 0.341176471   0 0 0 0 0.223529412   0 0 0 0 0.588235294  0 0 0 0.15 0" type="matrix" in="shadowBlurOuter1"/>
        </filter>
        <polygon id="path-8" points="0 1.45959347 11.1967309 1.45959347 11.1967309 12.6554083 0 12.6554083"/>
        <polygon id="path-10" points="0.53467535 0.866290102 11.7317116 0.866290102 11.7317116 12.0621049 0.53467535 12.0621049"/>
        <polygon id="path-12" points="0.922206612 0.908650138 20.3763572 0.908650138 20.3763572 20.3623122 0.922206612 20.3623122"/>
        <circle id="path-14" cx="206" cy="145" r="70"/>
        <filter x="-10.7%" y="-10.7%" width="121.4%" height="121.4%" filterUnits="objectBoundingBox" id="filter-15">
            <feOffset dx="0" dy="0" in="SourceAlpha" result="shadowOffsetOuter1"/>
            <feGaussianBlur stdDeviation="5" in="shadowOffsetOuter1" result="shadowBlurOuter1"/>
            <feColorMatrix values="0 0 0 0 0.341176471   0 0 0 0 0.223529412   0 0 0 0 0.588235294  0 0 0 0.15 0" type="matrix" in="shadowBlurOuter1"/>
        </filter>
        <polygon id="path-16" points="0.105 0.098 49.056 0.098 49.056 98 0.105 98"/>
        <polygon id="path-18" points="23.4539627 21.0309739 0.492002828 21.0309739 0.492002828 0.258188716 23.4539627 0.258188716"/>
    </defs>
    <g id="Page-1" stroke="none" stroke-width="1" fill="none" fill-rule="evenodd">
        <g id="Desktop-HD-Copy-3" transform="translate(-772.000000, -3733.000000)">
            <g id="Group" transform="translate(768.000000, 3729.000000)">
                <path d="M248.263474,367.795108 L463.263474,367.795108 C472.10003,367.795108 479.263474,374.958552 479.263474,383.795108 L479.263474,611.795108 C479.263474,620.631664 472.10003,627.795108 463.263474,627.795108 L248.263474,627.795108 C239.426918,627.795108 232.263474,620.631664 232.263474,611.795108 L232.263474,383.795108 C232.263474,374.958552 239.426918,367.795108 248.263474,367.795108 Z" id="Rectangle-Copy-5" fill-opacity="0.12" fill="#B8A2F4" transform="translate(355.763474, 497.795108) rotate(74.000000) translate(-355.763474, -497.795108) "/>
                <path d="M112.519727,15.984529 L320.519727,15.984529 C329.356283,15.984529 336.519727,23.147973 336.519727,31.984529 L336.519727,276.984529 C336.519727,285.821085 329.356283,292.984529 320.519727,292.984529 L112.519727,292.984529 C103.683171,292.984529 96.5197269,285.821085 96.5197269,276.984529 L96.5197269,31.984529 C96.5197269,23.147973 103.683171,15.984529 112.519727,15.984529 Z" id="Rectangle-Copy-5" fill-opacity="0.12" fill="#B8A2F4" transform="translate(216.519727, 154.484529) rotate(74.000000) translate(-216.519727, -154.484529) "/>
                <circle id="Oval" fill="#CCB4FF" opacity="0.250012" cx="138" cy="125" r="37"/>
                <path d="M108.689483,121.755304 L421.689483,121.755304 C430.526039,121.755304 437.689483,128.918748 437.689483,137.755304 L437.689483,556.755304 C437.689483,565.59186 430.526039,572.755304 421.689483,572.755304 L108.689483,572.755304 C99.8529273,572.755304 92.6894833,565.59186 92.6894833,556.755304 L92.6894833,137.755304 C92.6894833,128.918748 99.8529273,121.755304 108.689483,121.755304 Z" id="Rectangle-Copy-5" fill-opacity="0.12" fill="#B8A2F4" transform="translate(265.189483, 347.255304) rotate(74.000000) translate(-265.189483, -347.255304) "/>
                <g id="Page-1" transform="translate(409.818182, 334.000000) rotate(146.000000) translate(-409.818182, -334.000000) translate(368.000000, 289.000000)">
                    <path d="M40.9351134,41.5594047 L38.7785272,48.4281628 L28.6748898,80.6041802 C18.6818785,77.4681186 9.88710868,70.5167017 4.65661029,60.4994521 C-0.57450959,50.477852 -1.2494527,39.291571 1.88660895,29.2991811 L36.2347499,40.0821121 L40.9351134,41.5594047 Z" id="Fill-1" fill="#AF89FF"/>
                    <path d="M60.591744,85.2837237 C57.5128599,86.8890442 54.3233497,88.0661549 51.0928208,88.8355652 C43.8082829,90.5676706 36.3136797,90.2264701 29.3871226,88.0493746 L40.2806796,53.3587901 L41.6479677,49.0002486 L60.591744,85.2837237 Z" id="Fill-3" fill="#9464FF"/>
                    <g id="Group-7" transform="translate(1.864484, 0.443747)" fill="#CCB4FF">
                        <path d="M58.0110499,77.3947822 L39.0703811,41.1156576 L34.3706391,39.638365 L0.0218766092,28.855434 C3.16228872,18.8580722 10.1093551,10.0633024 20.1266048,4.83280401 C21.1756876,4.28526728 22.2340929,3.78682863 23.3080355,3.34246 C32.4732161,-0.497133515 42.3835687,-0.744488358 51.3312262,2.06653163 C61.3279665,5.20259328 70.1227363,12.1502812 75.3538562,22.1718813 C85.8117455,42.2107311 78.0498997,66.933164 58.0110499,77.3947822" id="Fill-5"/>
                    </g>
                </g>
                <path d="M72,415.199057 L87.8783903,415 L90.3670452,479.273199 L174.273009,563.680843 L90.5969212,565.252214 C81.7619229,565.418128 74.4652416,558.390447 74.2993274,549.555448 C74.2991606,549.546569 74.2990013,549.537689 74.2988493,549.52881 L72,415.199057 Z" id="Rectangle" fill="url(#linearGradient-1)" transform="translate(123.136504, 490.127546) rotate(-15.000000) translate(-123.136504, -490.127546) "/>
                <g id="Page-1" transform="translate(170.410832, 234.503468) scale(-1, -1) rotate(-16.000000) translate(-170.410832, -234.503468) ">
                    <use fill="black" fill-opacity="1" filter="url(#filter-3)" xlink:href="#path-2"/>
                    <use fill="#DA69FF" fill-rule="evenodd" xlink:href="#path-2"/>
                </g>
                <circle id="Oval-4" fill="url(#linearGradient-4)" opacity="0.595112" cx="95" cy="366" r="40"/>
                <g id="Group-17" transform="translate(377.000000, 213.000000) rotate(89.000000) translate(-377.000000, -213.000000) translate(325.000000, 181.000000)">
                    <polygon id="Rectangle" fill="url(#linearGradient-5)" transform="translate(51.623013, 31.931884) rotate(74.000000) translate(-51.623013, -31.931884) " points="32.4683811 -16.0681156 70.7776441 -16.0681156 70.7776441 79.9318844 32.4683811 79.9318844"/>
                    <polygon id="Rectangle" fill="#FCFAFF" transform="translate(24.872141, 30.137490) rotate(74.000000) translate(-24.872141, -30.137490) " points="23.6221409 18.5608176 26.1221409 18.5608176 26.1221409 41.7141632 23.6221409 41.7141632"/>
                    <polygon id="Rectangle" fill="#9464FF" transform="translate(36.914980, 36.151125) rotate(74.000000) translate(-36.914980, -36.151125) " points="35.6649798 14.6470427 38.1649798 14.6470427 38.1649798 57.6552081 35.6649798 57.6552081"/>
                    <polygon id="Rectangle" fill="#FFFFFF" transform="translate(33.957188, 46.466122) rotate(74.000000) translate(-33.957188, -46.466122) " points="32.7071881 30.6397769 35.2071881 30.6397769 35.2071881 62.2924671 32.7071881 62.2924671"/>
                </g>
                <g id="Board" transform="translate(217.916314, 357.992678) rotate(10.000000) translate(-217.916314, -357.992678) translate(57.916314, 197.992678)">
                    <g id="Group-15" transform="translate(0.348516, 0.292945)">
                        <g id="Rectangle" transform="translate(159.669755, 159.036145) rotate(64.000000) translate(-159.669755, -159.036145) ">
                            <use fill="black" fill-opacity="1" filter="url(#filter-7)" xlink:href="#path-6"/>
                            <use fill="#FFFFFF" fill-rule="evenodd" xlink:href="#path-6"/>
                        </g>
                        <g id="Group-11" transform="translate(159.669755, 159.669755) rotate(-27.000000) translate(-159.669755, -159.669755) translate(83.636538, 83.636538)" stroke="#EFEFEF">
                            <polygon id="Fill-1" points="24.876085 151.734697 25.702533 151.734697 25.702533 0.000495868803 24.876085 0.000495868803"/>
                            <polygon id="Fill-2" points="50.165394 151.734697 50.9901891 151.734697 50.9901891 0.000495868803 50.165394 0.000495868803"/>
                            <polygon id="Fill-3" points="75.4547029 151.734697 76.279498 151.734697 76.279498 0.000495868803 75.4547029 0.000495868803"/>
                            <polygon id="Fill-4" points="100.744012 151.734697 101.568807 151.734697 101.568807 0.000495868803 100.744012 0.000495868803"/>
                            <polygon id="Fill-5" points="126.033321 151.734697 126.858116 151.734697 126.858116 0.000495868803 126.033321 0.000495868803"/>
                            <polygon id="Fill-6" points="0 25.7030288 151.734201 25.7030288 151.734201 24.8765808 0 24.8765808"/>
                            <polygon id="Fill-7" points="0 50.9923378 151.734201 50.9923378 151.734201 50.1658898 0 50.1658898"/>
                            <polygon id="Fill-8" points="0 76.2816468 151.734201 76.2816468 151.734201 75.4551988 0 75.4551988"/>
                            <polygon id="Fill-9" points="0 101.569303 151.734201 101.569303 151.734201 100.744508 0 100.744508"/>
                            <polygon id="Fill-10" points="0 126.858612 151.734201 126.858612 151.734201 126.033817 0 126.033817"/>
                        </g>
                        <g id="Group-36" transform="translate(154.950509, 157.144659) rotate(-25.000000) translate(-154.950509, -157.144659) translate(91.589495, 107.524588)">
                            <polygon id="Fill-1" fill="#00ACB3" points="62.1653991 35.3997221 60.5241198 33.8011924 72.906236 21.0831865 74.5475153 22.6817162"/>
                            <polygon id="Fill-2" fill="#00ACB3" points="9.12490205 74.9988289 8.15082188 74.3896471 7.23781258 73.6980197 7.28361572 73.6369488 29.1637769 43.4114551 31.0188042 44.7519604"/>
                            <polygon id="Fill-3" fill="#00ACB3" points="37.4425422 40.9924384 37.2150533 38.7144955 53.6583814 37.0655824 53.8858704 39.3435253"/>
                            <polygon id="Fill-4" fill="#00ACB3" points="95.2690096 33.9221127 80.4440592 22.4209436 81.8486889 20.6117195 95.085797 30.8823108 116.724728 9.48002908 118.333945 11.1090942"/>
                            <g id="Group-35" transform="translate(0.000000, 0.661245)">
                                <g id="Group-7" transform="translate(0.000000, 70.231485)">
                                    <mask id="mask-9" fill="white">
                                        <use xlink:href="#path-8"/>
                                    </mask>
                                    <g id="Clip-6"/>
                                    <path d="M5.59806007,3.7497506 C3.77356823,3.7497506 2.28954642,5.23377242 2.28954642,7.05826426 C2.28954642,8.88122933 3.77356823,10.3652511 5.59806007,10.3652511 C7.42255192,10.3652511 8.90657373,8.88122933 8.90657373,7.05826426 C8.90657373,5.23377242 7.42255192,3.7497506 5.59806007,3.7497506 M5.59806007,12.6554083 C2.51245504,12.6554083 -0.000610708567,10.1438693 -0.000610708567,7.05826426 C-0.000610708567,3.97113245 2.51245504,1.45959347 5.59806007,1.45959347 C8.68519188,1.45959347 11.1967309,3.97113245 11.1967309,7.05826426 C11.1967309,10.1438693 8.68519188,12.6554083 5.59806007,12.6554083" id="Fill-5" fill="#00ACB3" mask="url(#mask-9)"/>
                                </g>
                                <path d="M32.9532235,36.7020581 C31.1287317,36.7020581 29.6447099,38.1860799 29.6447099,40.0105717 C29.6447099,41.8350636 31.1287317,43.3190854 32.9532235,43.3190854 C34.7777154,43.3190854 36.2617372,41.8350636 36.2617372,40.0105717 C36.2617372,38.1860799 34.7777154,36.7020581 32.9532235,36.7020581 M32.9532235,45.6092425 C29.8660917,45.6092425 27.3545528,43.0977035 27.3545528,40.0105717 C27.3545528,36.9234399 29.8660917,34.411901 32.9532235,34.411901 C36.0388286,34.411901 38.5518943,36.9234399 38.5518943,40.0105717 C38.5518943,43.0977035 36.0388286,45.6092425 32.9532235,45.6092425" id="Fill-8" fill="#00ACB3"/>
                                <path d="M58.1948773,33.776764 C56.3703855,33.776764 54.8863637,35.2607859 54.8863637,37.0852777 C54.8863637,38.9082428 56.3703855,40.3922646 58.1948773,40.3922646 C60.0193692,40.3922646 61.503391,38.9082428 61.503391,37.0852777 C61.503391,35.2607859 60.0193692,33.776764 58.1948773,33.776764 M58.1948773,42.6824217 C55.1077455,42.6824217 52.5962066,40.1708827 52.5962066,37.0852777 C52.5962066,33.9981459 55.1077455,31.4866069 58.1948773,31.4866069 C61.2804824,31.4866069 63.7935481,33.9981459 63.7935481,37.0852777 C63.7935481,40.1708827 61.2804824,42.6824217 58.1948773,42.6824217" id="Fill-10" fill="#00ACB3"/>
                                <path d="M77.3129563,15.2690883 C75.4884645,15.2690883 74.0044427,16.7531101 74.0044427,18.5760751 C74.0044427,20.400567 75.4884645,21.8845888 77.3129563,21.8845888 C79.1374482,21.8845888 80.62147,20.400567 80.62147,18.5760751 C80.62147,16.7531101 79.1374482,15.2690883 77.3129563,15.2690883 M77.3129563,24.1747459 C74.2273513,24.1747459 71.7142855,21.6616802 71.7142855,18.5760751 C71.7142855,15.4904701 74.2273513,12.9789311 77.3129563,12.9789311 C80.3985614,12.9789311 82.9116271,15.4904701 82.9116271,18.5760751 C82.9116271,21.6616802 80.3985614,24.1747459 77.3129563,24.1747459" id="Fill-12" fill="#00ACB3"/>
                                <g id="Group-16" transform="translate(114.507856, 0.000000)">
                                    <mask id="mask-11" fill="white">
                                        <use xlink:href="#path-10"/>
                                    </mask>
                                    <g id="Clip-15"/>
                                    <path d="M6.13334613,3.15644723 C4.30885429,3.15644723 2.82483247,4.63894227 2.82483247,6.46343411 C2.82483247,8.28792596 4.30885429,9.77194777 6.13334613,9.77194777 C7.95783798,9.77194777 9.44185979,8.28792596 9.44185979,6.46343411 C9.44185979,4.63894227 7.95783798,3.15644723 6.13334613,3.15644723 M6.13334613,12.0621049 C3.0477411,12.0621049 0.53467535,9.54903915 0.53467535,6.46343411 C0.53467535,3.37782908 3.0477411,0.866290102 6.13334613,0.866290102 C9.22047794,0.866290102 11.7320169,3.37782908 11.7320169,6.46343411 C11.7320169,9.54903915 9.22047794,12.0621049 6.13334613,12.0621049" id="Fill-14" fill="#00ACB3" mask="url(#mask-11)"/>
                                </g>
                                <path d="M116.219672,49.1279926 C114.39518,49.1279926 112.911159,50.6120144 112.911159,52.4365063 C112.911159,54.2609981 114.39518,55.7450199 116.219672,55.7450199 C118.044164,55.7450199 119.528186,54.2609981 119.528186,52.4365063 C119.528186,50.6120144 118.044164,49.1279926 116.219672,49.1279926 M116.219672,58.035177 C113.134067,58.035177 110.621002,55.5236381 110.621002,52.4365063 C110.621002,49.3493745 113.134067,46.8378355 116.219672,46.8378355 C119.305277,46.8378355 121.818343,49.3493745 121.818343,52.4365063 C121.818343,55.5236381 119.305277,58.035177 116.219672,58.035177" id="Fill-17" fill="#D84774"/>
                                <path d="M90.2995213,64.5373912 C88.4750295,64.5373912 86.9910077,66.021413 86.9910077,67.8459048 C86.9910077,69.6688699 88.4750295,71.1528917 90.2995213,71.1528917 C92.1240132,71.1528917 93.608035,69.6688699 93.608035,67.8459048 C93.608035,66.021413 92.1240132,64.5373912 90.2995213,64.5373912 M90.2995213,73.4430488 C87.2139163,73.4430488 84.7008505,70.9315098 84.7008505,67.8459048 C84.7008505,64.758773 87.2139163,62.247234 90.2995213,62.247234 C93.3866531,62.247234 95.8981921,64.758773 95.8981921,67.8459048 C95.8981921,70.9315098 93.3866531,73.4430488 90.2995213,73.4430488" id="Fill-19" fill="#D84774"/>
                                <path d="M44.9437229,88.8061862 C43.119231,88.8061862 41.6352092,90.290208 41.6352092,92.1146999 C41.6352092,93.9391917 43.119231,95.4232135 44.9437229,95.4232135 C46.7682147,95.4232135 48.2522365,93.9391917 48.2522365,92.1146999 C48.2522365,90.290208 46.7682147,88.8061862 44.9437229,88.8061862 M44.9437229,97.7133706 C41.8581178,97.7133706 39.3450521,95.2018317 39.3450521,92.1146999 C39.3450521,89.0275681 41.8581178,86.5160291 44.9437229,86.5160291 C48.0308547,86.5160291 50.5423936,89.0275681 50.5423936,92.1146999 C50.5423936,95.2018317 48.0308547,97.7133706 44.9437229,97.7133706" id="Fill-21" fill="#D84774"/>
                                <path d="M66.9022074,62.5215949 C65.0777156,62.5215949 63.5936937,64.0056167 63.5936937,65.8301085 C63.5936937,66.7263233 63.9616457,67.5981098 64.5998361,68.2240861 C65.2181785,68.8317411 66.0288941,69.126408 66.8777791,69.1386222 C68.8030378,69.0989261 70.2351494,67.683609 70.2107211,65.846903 L70.2107211,65.8453762 C70.1847659,63.9811883 68.7328063,62.5215949 66.9022074,62.5215949 M66.8121279,71.4303061 C65.3830698,71.4303061 64.0334039,70.876088 62.9967261,69.8623118 C61.921879,68.8073128 61.3035366,67.3370319 61.3035366,65.8301085 C61.3035366,62.7429767 63.8166024,60.2314377 66.9022074,60.2314377 C69.9481164,60.2314377 72.4581286,62.7368696 72.5008782,65.813314 C72.542101,68.8958655 70.0946864,71.3616014 66.9266357,71.4287793 C66.8884665,71.4287793 66.8502972,71.4303061 66.8121279,71.4303061" id="Fill-23" fill="#D84774"/>
                                <polygon id="Fill-25" fill="#D84774" points="48.6980538 89.4607131 46.9361596 87.9995929 63.1046689 68.5027219 64.8665631 69.9638421"/>
                                <polygon id="Fill-27" fill="#D84774" points="94.9074701 66.9751871 93.7684987 64.9888575 112.5371 54.2205387 113.666911 56.2129754 113.422627 56.3519116"/>
                                <polygon id="Fill-29" fill="#D84774" points="85.7453149 68.8462454 71.2257187 67.3347417 71.463895 65.0567988 85.9819644 66.5683025"/>
                                <path d="M99.6308429,31.7415777 C99.6308429,34.1996797 97.6368794,36.1936432 95.1772506,36.1936432 C92.7176219,36.1936432 90.7251852,34.1996797 90.7251852,31.7415777 C90.7251852,29.281949 92.7176219,27.2879855 95.1772506,27.2879855 C97.6368794,27.2879855 99.6308429,29.281949 99.6308429,31.7415777" id="Fill-31" fill="#F9FBFC"/>
                                <path d="M95.1772506,28.4330641 C93.3527588,28.4330641 91.868737,29.9170859 91.868737,31.740051 C91.868737,33.5645428 93.3527588,35.0485646 95.1772506,35.0485646 C97.0017425,35.0485646 98.4857643,33.5645428 98.4857643,31.740051 C98.4857643,29.9170859 97.0017425,28.4330641 95.1772506,28.4330641 M95.1772506,37.3387218 C92.0916456,37.3387218 89.5785799,34.8271828 89.5785799,31.740051 C89.5785799,28.6544459 92.0916456,26.142907 95.1772506,26.142907 C98.2643824,26.142907 100.775921,28.6544459 100.775921,31.740051 C100.775921,34.8271828 98.2643824,37.3387218 95.1772506,37.3387218" id="Fill-33" fill="#00ACB3"/>
                            </g>
                        </g>
                    </g>
                </g>
                <g id="Group-13" transform="translate(357.882353, 522.500000) rotate(-18.000000) translate(-357.882353, -522.500000) translate(283.000000, 475.000000)">
                    <polygon id="Fill-1" fill="#C3B0F5" points="132.655592 94.3535464 147.556722 94.3535464 147.556722 32.0743728 132.655592 32.0743728"/>
                    <polygon id="Fill-2" fill="#C3B0F5" points="82.0288797 94.3535464 96.9300092 94.3535464 96.9300092 61.186595 82.0288797 61.186595"/>
                    <polygon id="Fill-3" fill="#FAAADA" points="56.7161341 94.3535464 71.6172635 94.3535464 71.6172635 72.4396896 56.7161341 72.4396896"/>
                    <polygon id="Fill-4" fill="#C3B0F5" points="31.4021671 94.3535464 46.3032966 94.3535464 46.3032966 80.1253554 31.4021671 80.1253554"/>
                    <polygon id="Fill-5" fill="#FAAADA" points="6.08942149 94.3535464 20.990551 94.3535464 20.990551 84.8383673 6.08942149 84.8383673"/>
                    <polygon id="Fill-6" fill="#FAAADA" points="107.342847 94.3535464 122.243976 94.3535464 122.243976 48.0820037 107.342847 48.0820037"/>
                    <g id="Group-12" transform="translate(0.000000, 0.313142)">
                        <path d="M1.45506152,75.246124 C0.608697888,75.246124 0.112848485,75.230247 0.000488521579,75.2253618 L0.144602388,71.3855822 C0.329019284,71.3953526 18.8024628,71.9730294 45.0067603,64.2580523 C69.166595,57.1451781 105.037513,41.3195216 138.723519,6.31817172 L141.490994,8.98183563 C107.165025,44.6500174 70.5747585,60.7602378 45.9239596,67.9940211 C23.0977888,74.691652 6.36348209,75.246124 1.45506152,75.246124" id="Fill-7" fill="#A67AFF"/>
                        <g id="Group-11" transform="translate(127.015611, 0.000000)">
                            <mask id="mask-13" fill="white">
                                <use xlink:href="#path-12"/>
                            </mask>
                            <g id="Clip-10"/>
                            <polygon id="Fill-9" fill="#A67AFF" mask="url(#mask-13)" points="20.3763572 0.908161616 0.922206612 4.95312029 16.3313985 20.3623122"/>
                        </g>
                    </g>
                </g>
                <g id="Oval">
                    <use fill="black" fill-opacity="1" filter="url(#filter-15)" xlink:href="#path-14"/>
                    <use fill="#FFFFFF" fill-rule="evenodd" xlink:href="#path-14"/>
                </g>
                <g id="Group-12" transform="translate(204.000000, 145.500000) rotate(160.000000) translate(-204.000000, -145.500000) translate(159.000000, 96.000000)">
                    <g id="Group-3" transform="translate(40.000000, 0.902300)">
                        <mask id="mask-17" fill="white">
                            <use xlink:href="#path-16"/>
                        </mask>
                        <g id="Clip-2"/>
                        <path d="M0.105,98 L0.105,95 C25.442,95 46.056,74.387 46.056,49.049 C46.056,23.711 25.442,3.098 0.105,3.098 L0.105,0.098 C27.097,0.098 49.056,22.057 49.056,49.049 C49.056,76.041 27.097,98 0.105,98" id="Fill-1" fill="#FC9AD5" mask="url(#mask-17)"/>
                    </g>
                    <path d="M40.105,90.0556 L40.105,87.0556 C60.564,87.0556 77.209,70.4106 77.209,49.9516 C77.209,29.4916 60.564,12.8466 40.105,12.8466 C19.645,12.8466 3,29.4916 3,49.9516 L0,49.9516 C0,27.8376 17.991,9.8466 40.105,9.8466 C62.219,9.8466 80.209,27.8376 80.209,49.9516 C80.209,72.0646 62.219,90.0556 40.105,90.0556" id="Fill-4" fill="#BEA5F3"/>
                    <path d="M40.105,82.0556 C22.402,82.0556 8,67.6536 8,49.9516 L11,49.9516 C11,65.9986 24.057,79.0556 40.105,79.0556 C56.153,79.0556 69.209,65.9986 69.209,49.9516 C69.209,33.9036 56.153,20.8466 40.105,20.8466 L40.105,17.8466 C57.808,17.8466 72.209,32.2486 72.209,49.9516 C72.209,67.6536 57.808,82.0556 40.105,82.0556" id="Fill-6" fill="#FFBE8B"/>
                    <path d="M40.105,73.0918 L40.105,70.0918 C51.21,70.0918 60.246,61.0568 60.246,49.9508 C60.246,38.8458 51.21,29.8108 40.105,29.8108 C28.999,29.8108 19.964,38.8458 19.964,49.9508 L16.964,49.9508 C16.964,37.1918 27.345,26.8108 40.105,26.8108 C52.865,26.8108 63.246,37.1918 63.246,49.9508 C63.246,62.7108 52.865,73.0918 40.105,73.0918" id="Fill-8" fill="#7CB0FF"/>
                    <path d="M40.105,64.6591 C31.995,64.6591 25.397,58.0611 25.397,49.9511 L28.397,49.9511 C28.397,56.4071 33.649,61.6591 40.105,61.6591 C46.561,61.6591 51.813,56.4071 51.813,49.9511 C51.813,43.4951 46.561,38.2431 40.105,38.2431 L40.105,35.2431 C48.215,35.2431 54.813,41.8411 54.813,49.9511 C54.813,58.0611 48.215,64.6591 40.105,64.6591" id="Fill-10" fill="#FC9AD5"/>
                </g>
                <g id="Page-1" transform="translate(359.000000, 421.500000) rotate(-67.000000) translate(-359.000000, -421.500000) translate(331.000000, 397.000000)">
                    <path d="M8.13663506,11.2213284 C8.13663506,11.2213284 8.60304839,9.20912446 7.91489758,7.96025818 C7.22674678,6.71139191 6.45216546,5.31802258 5.72938161,5.68362595 C5.00659776,6.04922931 5.87720065,7.43506544 5.87720065,7.43506544 C5.87720065,7.43506544 4.34404617,6.93683064 1.27773722,5.94036105 C1.07733044,6.88470231 1.49770008,8.09227831 2.53884614,9.56308903 C4.10056523,11.7693051 5.64909735,12.8703416 5.64909735,12.8703416 L8.13663506,11.2213284 Z" id="Fill-4" fill="#FFAC2C" transform="translate(4.760155, 9.247317) rotate(23.000000) translate(-4.760155, -9.247317) "/>
                    <path d="M51.1850298,6.1949334 C51.1850298,6.1949334 51.6514432,4.18272947 50.9632924,2.9338632 C50.2751416,1.68499693 49.5005602,0.291627603 48.7777764,0.657230964 C48.0549925,1.02283432 48.9255954,2.40867046 48.9255954,2.40867046 C48.9255954,2.40867046 47.392441,1.91043566 44.326132,0.913966066 C44.1257252,1.85830733 44.5460949,3.06588332 45.5872409,4.53669405 C47.14896,6.74291013 48.6974921,7.84394662 48.6974921,7.84394662 L51.1850298,6.1949334 Z" id="Fill-4" fill="#FFAC2C" transform="translate(47.808550, 4.220922) scale(-1, 1) rotate(-277.000000) translate(-47.808550, -4.220922) "/>
                    <path d="M3.78640749,12.7301551 C3.65919092,13.635348 1.43135699,26.4538613 10.8034158,36.6371845 C18.1739039,44.6456769 34.230297,49.6537934 47.5471581,38.2806004 C53.0924773,33.5446506 55.720125,25.1758745 55.9081717,18.5605781 C56.1122228,11.3822605 51.5035862,5.15420366 51.5035862,5.15420366 L48.9126344,8.1148168 C48.9126344,8.1148168 49.6943771,14.2301004 47.2182842,20.1707446 C45.0874763,25.2829812 42.0050592,27.2098414 38.7097496,28.5709881 C33.3521271,30.7839851 29.9831365,30.4741032 24.6284807,30.3508431 C19.6011775,30.2351185 15.7280687,29.1333587 12.4067686,25.2287366 C8.64050445,20.8010011 7.56016877,12.2780102 7.56016877,12.2780102 L3.78640749,12.7301551 Z" id="Fill-7" fill="#9571E5"/>
                    <path d="M42.3822521,27.7375951 C43.1819088,30.5513673 39.5257891,34.0545646 34.2161959,35.563399 C28.9066027,37.0715961 23.9538285,36.0138829 23.1541718,33.2007479 C22.354515,30.3869757 26.0119091,26.8831412 31.3215023,25.374944 C36.6310955,23.8661097 41.5832326,24.9238229 42.3822521,27.7375951" id="Fill-10" fill="#FFAC2C"/>
                    <path d="M20.3490275,31.5267031 C20.3490275,31.5267031 21.8623221,32.994121 22.0987147,39.4722962 C22.377798,47.1024868 28.4016663,50.5349575 38.596493,47.0298487 C46.1400276,44.4359025 48.5829629,38.1100125 46.0221499,32.3117048 C43.1650497,25.8405385 36.3083916,25.6857046 30.3597102,28.9231993 C24.8124501,31.9427795 20.3490275,31.5267031 20.3490275,31.5267031" id="Fill-12" fill="#0D264C"/>
                </g>
                <g id="Page-1" transform="translate(311.500000, 253.500000) rotate(-121.000000) translate(-311.500000, -253.500000) translate(288.000000, 226.000000)">
                    <path d="M3.81935342,20.7440742 C3.81935342,20.7440742 5.69226961,20.2088016 6.40771945,19.0702351 C7.12316928,17.9316685 7.9182901,16.6557475 7.2862849,16.226745 C6.65427971,15.7977425 5.909273,17.1494184 5.909273,17.1494184 C5.909273,17.1494184 5.61926649,15.6570754 5.03925345,12.6723895 C4.1687318,12.9388425 3.3649098,13.8376643 2.62778742,15.3688549 C1.52210386,17.6656408 1.32194776,19.446266 1.32194776,19.446266 L3.81935342,20.7440742 Z" id="Fill-4" fill="#FFAC2C" transform="translate(4.419154, 16.708232) rotate(-22.000000) translate(-4.419154, -16.708232) "/>
                    <path d="M42.1171522,7.86709699 C42.1171522,7.86709699 42.557,5.96950226 41.9080442,4.79176772 C41.2590885,3.61403318 40.528625,2.30002605 39.8470088,2.64480573 C39.1653926,2.9895854 39.9160361,4.49414024 39.9160361,4.49414024 C39.9160361,4.49414024 36.6358702,0.734020912 35.7700405,1.46478452 C34.9042108,2.19554813 35.5416427,4.2949977 36.8381968,6.30330605 C38.1347509,8.3116144 39.7712973,9.42218728 39.7712973,9.42218728 L42.1171522,7.86709699 Z" id="Fill-4" fill="#FFAC2C" transform="translate(38.817871, 5.396378) scale(-1, 1) rotate(-313.000000) translate(-38.817871, -5.396378) "/>
                    <path d="M2.23587752,20.1321695 C1.96377544,20.6391968 -2.73372026,32.95047 6.12620898,43.4439695 C12.6709551,51.1954186 32.1414699,52.6624199 42.1839274,40.1453651 C46.2588924,35.0662736 47.3116224,27.7016759 45.5753307,20.4774999 C44.4693514,15.8758603 41.3163028,8.45625551 41.3163028,8.45625551 L37.7833549,9.28442529 C37.7833549,9.28442529 39.7143542,16.3007729 37.8874276,22.7729189 C37.1012719,25.5579867 36.2079609,28.9023794 32.5941101,32.5491306 C29.067717,36.1076279 22.8445188,37.0921766 17.7948484,36.9759371 C13.0538855,36.8668037 9.78078107,32.5576673 8.71340931,30.4408465 C6.08378179,25.2257468 5.95768673,20.5667926 5.95768673,20.5667926 L2.23587752,20.1321695 Z" id="Fill-7" fill="#9571E5"/>
                    <path d="M34.8246489,34.7566888 C35.5787595,37.4101968 32.1308816,40.7138624 27.1237071,42.136758 C22.1165327,43.5590527 17.4458538,42.5615836 16.6917432,39.9086765 C15.9376325,37.2551685 19.3867123,33.950902 24.3938867,32.5286073 C29.4010611,31.1057117 34.0711391,32.1031808 34.8246489,34.7566888" id="Fill-10" fill="#FFAC2C"/>
                    <g id="Group-14" transform="translate(15.623009, 32.405125)">
                        <mask id="mask-19" fill="white">
                            <use xlink:href="#path-18"/>
                        </mask>
                        <g id="Clip-13"/>
                        <path d="M0.658089217,11.6667825 C1.1303848,15.6897074 1.78234499,17.3601676 6.03360614,19.7018163 C12.6721833,23.3582014 20.8778684,19.024619 23.0638879,12.145087 C24.1611039,8.68939753 22.7057605,7.05438953 21.6265711,4.92725674 C20.4704684,2.64990271 19.2296409,0.870682319 17.4191745,0.352719476 C15.3016559,-0.252371687 16.9276506,2.16138323 10.1352469,4.34439832 C3.28335564,6.54664173 2.37842288,3.50496202 0.841960018,6.52741341 C0.369664433,7.45578069 0.446577708,9.86953561 0.658089217,11.6667825" id="Fill-12" fill="#0D264C" mask="url(#mask-19)"/>
                    </g>
                </g>
                <g id="Page-1" transform="translate(255.000000, 79.500000) rotate(235.000000) translate(-255.000000, -79.500000) translate(232.000000, 53.000000)">
                    <path d="M8.24818714,13.2712544 C8.24818714,13.2712544 8.67320813,11.4376256 8.04612798,10.2995913 C7.41904784,9.16155695 6.71320753,7.89184363 6.05456789,8.22500114 C5.39592824,8.55815865 6.18926858,9.82100732 6.18926858,9.82100732 C6.18926858,9.82100732 3.37413407,7.07476876 2.4309052,7.66706024 C1.48767633,8.25935172 1.72405708,9.7497541 3.14717979,11.7601773 C4.5703025,13.7706004 5.98140854,14.7739243 5.98140854,14.7739243 L8.24818714,13.2712544 Z" id="Fill-4" fill="#FFAC2C" transform="translate(5.127319, 11.178655) rotate(42.000000) translate(-5.127319, -11.178655) "/>
                    <path d="M32.3404872,5.97473361 C32.3404872,5.97473361 32.4509789,5.31153118 31.9557616,3.19761487 C31.6256168,1.78833732 31.1032402,1.01647203 30.3886318,0.88201899 C30.0851591,1.78088435 29.9334227,2.23031703 29.9334227,2.23031703 C29.9334227,2.23031703 25.9014337,0.642410362 25.1809475,1.40628677 C24.4604614,2.17016318 25.4752959,3.69552477 27.1540135,5.3357704 C28.8327311,6.97601602 30.0737086,7.47740345 30.0737086,7.47740345 L32.3404872,5.97473361 Z" id="Fill-4" fill="#FFAC2C" transform="translate(28.648477, 4.179711) scale(-1, 1) rotate(-277.000000) translate(-28.648477, -4.179711) "/>
                    <path d="M3.1591883,13.9092148 C1.80258885,16.5724654 -0.174474918,30.744016 7.6615902,38.4957403 C14.6965178,45.4549498 32.2684992,47.0329852 42.5038408,35.3083283 C48.3139099,28.6531637 45.3466456,19.6068837 40.9847322,13.6492851 C36.9763365,8.17452873 31.7597379,5.49976398 31.7597379,5.49976398 L29.5719888,8.32407289 C29.5719888,8.32407289 35.2878686,12.608125 36.1576837,18.2764549 C36.4784932,20.3670757 35.9271628,23.9806022 33.3406326,26.6234604 C29.9566217,30.0811663 23.8163433,32.3580596 18.936892,32.2457384 C14.355742,32.1402838 11.2698377,28.4303095 9.77973271,25.9124511 C6.27792019,19.9953725 6.70846792,14.4503348 6.70846792,14.4503348 L3.1591883,13.9092148 Z" id="Fill-7" fill="#8D5AFF"/>
                    <path d="M35.3926358,30.1012986 C36.1213261,32.6653597 32.7896725,35.8576621 27.9512847,37.2325934 C23.1128968,38.6069441 18.5996617,37.6430987 17.8709713,35.0796183 C17.142281,32.5155572 20.4750958,29.3226741 25.3134837,27.9483235 C30.1518715,26.5733922 34.664526,27.5372376 35.3926358,30.1012986" id="Fill-10" fill="#FFAC2C"/>
                    <path d="M40.3943265,30.249904 C38.5430884,25.7973929 34.9968407,24.2399473 34.5793098,27.0769455 C34.4230813,28.1352896 34.2309065,29.4659966 33.9537047,30.2823939 C32.3907288,29.3436406 30.5408733,28.8459217 28.5831786,28.9523782 C24.3498022,29.181882 20.9189976,32.1647395 19.9325462,36.0697596 C18.29353,35.8112223 17.4992535,34.3927232 15.7530894,34.4404213 C13.5105889,34.5005623 12.6776008,41.6345343 18.1013552,44.2192167 C18.083382,44.2192167 18.180852,48.5853182 23.558982,50.6114492 C28.7179775,52.5539358 32.5732258,49.0318827 32.5732258,49.0318827 C32.5732258,49.0318827 37.3706837,49.9416024 39.770104,44.6395127 C41.8646714,40.0100349 40.7275217,36.5073376 40.7275217,36.5073376 C40.7275217,36.5073376 41.9469332,33.9841789 40.3943265,30.249904" id="Fill-1" fill="#0D264C" transform="translate(27.603230, 38.422029) rotate(4.000000) translate(-27.603230, -38.422029) "/>
                </g>
            </g>
        </g>
    </g>
</svg>